HIERARCHY
ROOT hip
{
  OFFSET 0 0 0
  CHANNELS 6 Xposition Yposition Zposition Zrotation Yrotation Xrotation
  JOINT abdomen
  {
    OFFSET 0 20.6881 -0.73152
    CHANNELS 3 Zrotation Xrotation Yrotation
    JOINT chest
    {
      OFFSET 0 11.7043 -0.48768
      CHANNELS 3 Zrotation Xrotation Yrotation
      JOINT neck
      {
        OFFSET 0 22.1894 -2.19456
        CHANNELS 3 Zrotation Xrotation Yrotation
        JOINT head
        {
          OFFSET -0.24384 7.07133 1.2192
          CHANNELS 3 Zrotation Xrotation Yrotation
          JOINT leftEye
          {
            OFFSET 4.14528 8.04674 8.04672
            CHANNELS 3 Zrotation Xrotation Yrotation
            End Site
            {
              OFFSET 1 0 0
            }
          }
          JOINT rightEye
          {
            OFFSET -3.6576 8.04674 8.04672
            CHANNELS 3 Zrotation Xrotation Yrotation
            End Site
            {
              OFFSET 1 0 0
            }
          }
        }
      }
      JOINT rCollar
      {
        OFFSET -2.68224 19.2634 -4.8768
        CHANNELS 3 Zrotation Xrotation Yrotation
        JOINT rShldr
        {
          OFFSET -8.77824 -1.95073 1.46304
          CHANNELS 3 Zrotation Xrotation Yrotation
          JOINT rForeArm
          {
            OFFSET -28.1742 -1.7115 0.48768
            CHANNELS 3 Zrotation Xrotation Yrotation
            JOINT rHand
            {
              OFFSET -22.5879 0.773209 7.07136
              CHANNELS 3 Zrotation Xrotation Yrotation
              JOINT rThumb1
              {
                OFFSET -1.2192 -0.487915 3.41376
                CHANNELS 3 Zrotation Xrotation Yrotation
                JOINT rThumb2
                {
                  OFFSET -3.37035 -0.52449 3.41376
                  CHANNELS 3 Zrotation Xrotation Yrotation
                  End Site
                  {
                    OFFSET -1.78271 -1.18214 1.43049
                  }
                }
              }
              JOINT rIndex1
              {
                OFFSET -7.75947 0.938293 5.60832
                CHANNELS 3 Zrotation Xrotation Yrotation
                JOINT rIndex2
                {
                  OFFSET -2.54057 -0.884171 1.56538
                  CHANNELS 3 Zrotation Xrotation Yrotation
                  End Site
                  {
                    OFFSET -1.62519 -0.234802 1.16502
                  }
                }
              }
              JOINT rMid1
              {
                OFFSET -8.24714 1.18213 3.41376
                CHANNELS 3 Zrotation Xrotation Yrotation
                JOINT rMid2
                {
                  OFFSET -3.10165 -0.590103 1.0647
                  CHANNELS 3 Zrotation Xrotation Yrotation
                  End Site
                  {
                    OFFSET -2.48547 -0.328903 0.83742
                  }
                }
              }
              JOINT rRing1
              {
                OFFSET -8.82822 0.546677 1.51678
                CHANNELS 3 Zrotation Xrotation Yrotation
                JOINT rRing2
                {
                  OFFSET -2.60934 -0.819778 -0.0198488
                  CHANNELS 3 Zrotation Xrotation Yrotation
                  End Site
                  {
                    OFFSET -2.33842 -0.294052 0.168128
                  }
                }
              }
              JOINT rPinky1
              {
                OFFSET -8.27202 -0.0477905 -0.4584
                CHANNELS 3 Zrotation Xrotation Yrotation
                JOINT rPinky2
                {
                  OFFSET -1.82734 -0.647385 -0.700984
                  CHANNELS 3 Zrotation Xrotation Yrotation
                  End Site
                  {
                    OFFSET -1.69225 -0.51767 -0.607171
                  }
                }
              }
            }
          }
        }
      }
      JOINT lCollar
      {
        OFFSET 2.68224 19.2634 -4.8768
        CHANNELS 3 Zrotation Xrotation Yrotation
        JOINT lShldr
        {
          OFFSET 8.77824 -1.95073 1.46304
          CHANNELS 3 Zrotation Xrotation Yrotation
          JOINT lForeArm
          {
            OFFSET 28.1742 -1.7115 0.48768
            CHANNELS 3 Zrotation Xrotation Yrotation
            JOINT lHand
            {
              OFFSET 22.5879 0.773209 7.07136
              CHANNELS 3 Zrotation Xrotation Yrotation
              JOINT lThumb1
              {
                OFFSET 1.2192 -0.487915 3.41376
                CHANNELS 3 Zrotation Xrotation Yrotation
                JOINT lThumb2
                {
                  OFFSET 3.37035 -0.52449 3.41376
                  CHANNELS 3 Zrotation Xrotation Yrotation
                  End Site
                  {
                    OFFSET 1.78271 -1.18214 1.43049
                  }
                }
              }
              JOINT lIndex1
              {
                OFFSET 7.75947 0.938293 5.60832
                CHANNELS 3 Zrotation Xrotation Yrotation
                JOINT lIndex2
                {
                  OFFSET 2.54057 -0.884171 1.56538
                  CHANNELS 3 Zrotation Xrotation Yrotation
                  End Site
                  {
                    OFFSET 1.62519 -0.234802 1.16502
                  }
                }
              }
              JOINT lMid1
              {
                OFFSET 8.24714 1.18213 3.41376
                CHANNELS 3 Zrotation Xrotation Yrotation
                JOINT lMid2
                {
                  OFFSET 3.10165 -0.590103 1.0647
                  CHANNELS 3 Zrotation Xrotation Yrotation
                  End Site
                  {
                    OFFSET 2.48547 -0.328903 0.83742
                  }
                }
              }
              JOINT lRing1
              {
                OFFSET 8.82822 0.546677 1.51678
                CHANNELS 3 Zrotation Xrotation Yrotation
                JOINT lRing2
                {
                  OFFSET 2.60934 -0.819778 -0.0198488
                  CHANNELS 3 Zrotation Xrotation Yrotation
                  End Site
                  {
                    OFFSET 2.33842 -0.294052 0.168128
                  }
                }
              }
              JOINT lPinky1
              {
                OFFSET 8.27202 -0.0477905 -0.4584
                CHANNELS 3 Zrotation Xrotation Yrotation
                JOINT lPinky2
                {
                  OFFSET 1.82734 -0.647385 -0.700984
                  CHANNELS 3 Zrotation Xrotation Yrotation
                  End Site
                  {
                    OFFSET 1.69225 -0.51767 -0.607171
                  }
                }
              }
            }
          }
        }
      }
    }
  }
  JOINT rButtock
  {
    OFFSET -8.77824 4.35084 1.2192
    CHANNELS 3 Zrotation Xrotation Yrotation
    JOINT rThigh
    {
      OFFSET 0 -1.70687 -2.19456
      CHANNELS 3 Zrotation Xrotation Yrotation
      JOINT rShin
      {
        OFFSET 0 -36.8199 0.73152
        CHANNELS 3 Zrotation Xrotation Yrotation
        JOINT rFoot
        {
          OFFSET 0.73152 -45.1104 -5.12064
          CHANNELS 3 Zrotation Xrotation Yrotation
          End Site
          {
            OFFSET -1.1221 -3.69964 12.103
          }
        }
      }
    }
  }
  JOINT lButtock
  {
    OFFSET 8.77824 4.35084 1.2192
    CHANNELS 3 Zrotation Xrotation Yrotation
    JOINT lThigh
    {
      OFFSET 0 -1.70687 -2.19456
      CHANNELS 3 Zrotation Xrotation Yrotation
      JOINT lShin
      {
        OFFSET 0 -36.8199 0.73152
        CHANNELS 3 Zrotation Xrotation Yrotation
        JOINT lFoot
        {
          OFFSET -0.73152 -45.1104 -5.12064
          CHANNELS 3 Zrotation Xrotation Yrotation
          End Site
          {
            OFFSET 1.1221 -3.69964 12.103
          }
        }
      }
    }
  }
}
MOTION
Frames:	8
Frame Time:	0.03333
0.0 0.0 0.0 0.0 0.0 0.0 0.0 0.0 0.0 0.0 0.0 0.0 0.0 0.0 0.0 0.0 0.0 0.0 0.0 0.0 0.0 0.0 0.0 0.0 0.0 0.0 0.0 0.0 0.0 0.0 0.0 0.0 0.0 0.0 0.0 0.0 0.0 0.0 0.0 0.0 0.0 0.0 0.0 0.0 0.0 0.0 0.0 0.0 0.0 0.0 0.0 0.0 0.0 0.0 0.0 0.0 0.0 0.0 0.0 0.0 0.0 0.0 0.0 0.0 0.0 0.0 0.0 0.0 0.0 0.0 0.0 0.0 0.0 0.0 0.0 0.0 0.0 0.0 0.0 0.0 0.0 0.0 0.0 0.0 0.0 0.0 0.0 0.0 0.0 0.0 0.0 0.0 0.0 0.0 0.0 0.0 0.0 0.0 0.0 0.0 0.0 0.0 0.0 0.0 0.0 0.0 0.0 0.0 0.0 0.0 0.0 0.0 0.0 0.0 0.0 0.0 0.0 0.0 0.0 0.0 0.0 0.0 0.0 0.0 0.0 0.0 0.0 0.0 0.0 0.0 0.0 0.0
1.9855 69.4628 -1.1267 177.755145 12.079738 173.845439 -13.11244 7.826656 -180.0 -3.718878 4.529604 -173.023587 2.525282 18.361815 66.218165 -26.778887 -7.317242 -106.170289 -0.003434 -0.0 0.000147 -0.004387 0.0 -0.003692 -13.743456 42.431677 15.568688 130.962496 -8.391047 166.209682 174.480027 -60.733665 47.425742 157.957932 -33.501167 140.354037 -93.743957 37.964501 53.548493 -3.201402 -17.181109 26.647061 -152.105971 -18.556297 121.36791 -173.937328 -38.977208 116.712318 -169.089479 -33.247185 145.376247 18.15639 -42.053646 0.308055 0.000957 -0.018446 -0.006268 8.448452 19.53524 2.74302 17.317378 60.660113 12.796986 -148.879556 13.434045 -143.50284 155.716521 -4.925321 -162.135711 -64.602221 -51.332796 -118.851436 59.808833 -63.733474 -48.339706 6.981818 -58.849758 13.088628 0.54334 0.536467 -0.086005 90.880014 19.26372 -83.297967 83.731856 42.329667 -69.990325 169.542238 -18.870231 -114.266601 8.416533 20.880408 -5.645453 42.02541 58.556101 -36.137916 145.119875 0.309489 179.226969 -10.34352 67.715664 -0.565131 144.111845 8.781759 140.873785 -34.943675 74.508169 0.567795 -179.999819 75.748314 -0.0 153.493737 16.971106 87.165792 70.202175 4.160611 51.124102 32.218298 39.594197 -127.184488 -179.994168 75.749806 -0.004495 -147.68909 71.808805 -30.806099 -7.522353 66.722954 178.606806 147.284886 39.750819 122.473134
2.6382 69.4823 -1.6379000000000001 177.730137 11.983614 174.385908 -13.221485 12.205119 -0.0 3.821465 -9.365027 7.647813 -5.408496 13.97179 15.996675 -2.525504 -23.639217 -53.967009 -0.004335 -0.0 0.004124 0.000271 -0.0 -0.001027 -155.417117 -2.95158 161.718147 127.022284 51.650846 -79.578989 137.292217 -13.2678 32.807298 173.473212 6.578745 149.210066 -3.643028 3.55438 0.670168 -144.064899 -51.152288 117.950386 -11.06375 15.605781 7.220939 53.7409 -49.239994 12.231892 -82.84019 61.11213 74.532358 167.846031 -64.068042 132.818766 -145.119078 0.226965 -179.198877 9.684459 -5.715011 -9.744793 -9.260315 -19.385986 -8.755603 -147.296089 12.805549 -143.897122 155.548506 -3.804211 -161.900101 -65.624974 -49.432025 -117.577669 121.838581 -0.564239 -6.181291 173.406731 -44.246963 -155.354049 3.228918 3.154942 -0.58192 143.926794 -51.057433 -118.232674 151.351388 -17.158914 -121.133145 47.472475 55.174513 -32.826979 163.729807 -16.358243 -144.462331 -165.248816 -65.466002 -130.815883 73.384856 72.97258 -91.300892 159.840829 0.091939 -176.266082 -5.067634 14.89728 -4.571399 -1.119732 -2.91073 0.9513 -0.000731 -0.000348 0.00094 -41.868637 -50.859639 130.872092 44.523767 -64.688078 107.855508 55.603348 -37.855721 166.678566 -0.000731 -0.000348 0.00094 8.986607 -1.766061 90.291518 66.884963 2.783478 84.390982 -23.344609 23.803086 -133.65299
3.1385000000000005 69.4836 -2.1339 176.997754 12.395001 174.856434 -12.055918 8.327503 -110.908984 5.050324 3.779883 118.599567 3.80599 19.960208 76.435713 -29.937875 -1.58973 -114.805843 0.001833 0.0 0.004029 0.001833 0.0 0.004029 -143.954582 37.588577 148.438421 91.725008 41.931263 -93.264457 -74.781456 82.274457 166.504355 -7.010146 36.418278 3.020731 -174.697111 -12.354591 89.84123 -138.32903 11.213349 70.350631 -138.493598 4.895911 114.86403 10.465658 -3.044664 -9.548405 -82.840604 61.109576 74.532409 3.213762 0.637209 0.24239 -77.103648 72.919647 95.199999 5.140991 28.34883 -0.778441 -26.565592 -38.860929 -25.605094 76.855124 86.216813 -37.514517 147.865453 28.559892 -152.689973 179.724286 11.039486 -102.774625 54.637364 -1.803436 -152.713248 173.704266 -61.95031 -161.76764 164.697846 -2.372065 -89.585857 -24.568601 -59.74484 -23.678491 148.885338 -12.610405 -120.243933 86.109678 56.771713 -67.335537 -7.904166 -24.807597 3.013486 10.430625 31.676203 -8.281155 132.48126 54.102995 -155.533622 159.18925 0.155856 -178.62015 12.466096 -24.288489 11.847729 22.425715 -40.181593 23.676155 -0.002647 0.000776 -0.0 -41.890986 -51.736647 -160.567109 -65.178945 -38.160106 7.146828 147.078661 -11.872909 -100.873354 0.0 0.000998 -0.000487 9.455903 -0.127994 0.210907 -19.045906 58.213028 -95.313084 89.857267 -12.079962 158.403102
3.5888000000000004 69.439 -2.5549 176.230842 12.986844 175.196438 -13.164194 6.941152 -136.709887 1.693358 5.353981 145.302243 -12.599282 31.97615 -130.894098 26.819069 34.801893 87.278377 -0.003928 0.0 -0.001086 -0.002972 -0.0 0.002617 -158.514723 -30.702293 167.037874 83.012263 43.509766 -25.641833 163.20828 -44.021269 41.017511 162.578586 -24.177964 143.789892 -178.92825 -16.453341 89.422477 -128.814196 15.819301 64.14157 -46.208923 39.652723 36.318259 -164.555397 -11.287263 112.142489 -0.057488 0.167933 0.03175 2.831165 1.183847 0.133682 -114.671518 66.733155 135.095037 5.025352 -19.263866 -8.334257 -23.393794 -36.347637 -22.496447 2.287093 -2.407316 -1.016803 0.165302 0.979179 -0.218952 96.03478 -11.66713 148.523091 -104.54247 -35.606729 111.135534 35.019524 25.754186 -15.165567 176.927398 -14.53258 -89.658675 -123.699794 -62.280115 -91.882563 -15.557958 -27.950777 5.750777 172.141411 -32.33168 -108.401285 -23.905134 -61.333584 -1.401223 163.920119 -6.16653 -143.37872 0.061024 -3.511861 1.106288 153.863416 -65.026915 178.21934 124.850039 -29.037912 122.621153 13.617178 -30.063042 16.263743 0.007848 -0.000733 0.003924 -42.378248 -50.378493 -49.82891 -12.550459 66.387202 103.672933 -125.901688 52.755198 59.639515 -0.0 -0.000733 -0.00218 9.072582 0.453962 0.109277 -17.248368 60.812638 -132.270054 -1.529337 33.8164 -177.753316
4.0295 69.3954 -2.9507 176.054698 13.34944 175.568617 -16.863844 9.470382 61.507391 -3.891384 -9.167843 -52.020102 -16.765643 24.326123 -77.955379 36.131851 7.997373 40.04516 0.000866 0.0 0.001616 -6.1e-05 0.0 -0.002064 0.117411 -0.714174 -0.157277 -101.69987 28.74965 71.76013 -3.506716 34.247335 -117.972593 152.265401 -41.829597 135.918938 -178.928166 -16.453496 89.420856 -4.65765 -55.376247 2.069385 169.564199 -65.841622 109.954315 14.711307 1.983261 -7.876346 -10.97664 25.789669 7.640504 53.092149 -73.649452 26.318273 0.00633 1.855326 0.583253 -155.980662 -7.86123 172.798209 13.633041 46.898502 11.16002 13.441801 39.420685 7.715759 44.924722 -86.287436 66.532501 -118.899002 26.938163 135.195789 -90.324672 35.722844 -71.79255 41.906448 33.734977 -22.430242 173.975796 -11.643691 -89.881244 -59.65162 -69.624414 -45.723393 0.328539 0.529667 -0.186011 79.558012 48.078474 -62.049734 -6.5321 -20.415051 2.719217 7.382074 26.182919 -6.039614 8.1e-05 0.063742 -0.020267 -11.069596 -12.971189 1.619383 -12.989731 44.344274 -10.759034 -0.890269 -2.16623 1.008242 0.004638 -0.000267 0.002319 -42.87802 -50.76063 -50.168058 -42.244809 69.450669 -110.632386 -156.517643 31.91279 -158.562543 0.000624 -0.000267 -0.000803 8.964692 1.117617 0.003244 -15.867974 50.979113 -50.99906 27.760654 75.214846 72.379664
4.449800000000001 69.41279999999999 -3.3081 176.283296 13.399452 175.825737 -14.457317 10.620886 -0.0 3.983964 -8.964308 10.279586 -1.262084 33.320893 167.314296 -11.196821 41.362466 159.340882 -0.002122 -0.0 0.001957 0.003462 0.0 0.000676 -158.764785 -59.605046 173.33189 69.142586 19.366177 5.638644 88.524134 40.974489 17.200815 -120.615305 77.501744 103.501925 -78.030162 38.68939 42.413027 92.519903 -52.792744 35.69023 5.741246 -9.851252 -2.890598 -174.171513 -31.802943 107.518103 -160.826105 -7.14155 143.31737 80.983623 -77.630068 52.538512 -145.11801 0.226713 -179.199349 -16.088759 -68.331274 -37.220499 -25.536229 -38.088262 -24.59742 10.892314 24.649012 5.571682 155.515466 -3.589445 -161.855095 -83.456796 -39.936551 -126.193661 -66.02505 23.125195 -123.837356 43.485429 35.222267 -24.089493 -11.110287 -11.092096 0.640905 -11.660161 -28.42466 18.181736 172.89881 -51.893984 -120.178291 -0.636504 24.291196 2.717831 -0.541067 -1.589896 0.295579 -3.16174 0.193274 0.000781 75.673217 -72.116031 92.828968 -14.713167 -0.913501 4.769707 114.974658 -38.449022 112.962363 4.9182 -17.684793 8.373831 -179.984653 75.750325 -0.012627 153.466571 12.657005 180.0 -6.493605 -73.159543 -71.334592 -10.495779 -10.970298 -107.853371 179.901762 75.750309 0.075717 -148.892039 74.352449 63.783221 49.184537 0.715824 -97.742064 -49.513757 -60.915049 19.348518
4.8105 69.4789 -3.6061 176.552713 13.236693 176.022988 -11.558952 8.215903 -94.647293 6.30607 1.7576 104.196444 -15.922938 27.499819 -96.111696 35.325456 18.310868 54.842776 -0.001149 0.0 -0.000222 -0.001143 0.0 -0.000716 -155.563193 -3.901073 161.921146 65.813947 21.238676 -42.880252 -61.548462 -81.147346 172.345947 149.360326 -45.242007 133.495132 -170.594097 -8.277595 89.949157 -172.82776 -10.286555 90.479963 -150.052628 -14.751462 120.688473 -17.084141 40.584097 6.712438 -167.374574 -28.008484 145.269731 174.53859 -56.629157 137.77022 -0.021927 -1.725192 -0.542223 -154.094813 12.763144 170.111199 -152.202078 37.330023 -147.581988 -26.024527 -40.240987 -26.850635 158.467873 -30.055604 -166.919729 144.464709 71.195583 -84.317634 -128.315047 -0.069469 17.455633 46.308543 38.004275 -26.956054 5.434346 5.26473 -1.077324 -165.103016 -78.983439 -86.652863 173.600933 -52.692923 -119.891872 -1.790559 22.703162 3.330186 125.643286 49.839756 -115.274065 167.935919 -19.523252 -144.007957 145.120574 0.226179 179.200364 150.35333 -35.133 173.022068 124.849619 -29.037384 122.620608 -1.960631 -2.849683 2.550559 0.004982 -0.000964 0.002491 -42.655251 -50.479856 -35.945924 23.81596 67.478753 73.779756 -5.96699 -14.719711 -91.881957 -179.983259 75.749489 -0.014771 -138.975652 75.288967 -41.972026 -20.761822 52.010276 -89.582146 79.192215 -11.26352 152.41575
